<mxfile host="app.diagrams.net" modified="2024-06-20T12:29:27.059Z" agent="Mozilla/5.0 (Windows NT 10.0; Win64; x64) AppleWebKit/537.36 (KHTML, like Gecko) Chrome/126.0.0.0 Safari/537.36" version="24.5.5" etag="owT9AHpdi_twntqe9Xgu" type="github">
  <diagram name="Страница — 1" id="iTSy_HHLnixxr7HEKqNK">
    <mxGraphModel>
      <root>
        <mxCell id="0" />
        <mxCell id="1" parent="0" />
      </root>
    </mxGraphModel>
  </diagram>
</mxfile>
